<svg width="761" height="140" viewBox="0 0 761 140" fill="none" xmlns="http://www.w3.org/2000/svg">
<rect width="760.485" height="140" fill="white"/>
<path d="M29.4716 74.4886V103.5H15.554V36.5909H29.0795V62.1719H29.6676C30.8002 59.2098 32.6297 56.8901 35.1562 55.2131C37.6828 53.5142 40.8518 52.6648 44.6634 52.6648C48.1482 52.6648 51.1866 53.4271 53.7784 54.9517C56.392 56.4545 58.4176 58.6217 59.8551 61.4531C61.3144 64.2628 62.0331 67.6278 62.0114 71.5483V103.5H48.0938V74.0312C48.1155 70.9384 47.3314 68.5317 45.7415 66.8111C44.1733 65.0904 41.9735 64.2301 39.142 64.2301C37.2472 64.2301 35.5701 64.633 34.1108 65.4389C32.6733 66.2448 31.5407 67.4209 30.7131 68.9673C29.9072 70.492 29.4934 72.3324 29.4716 74.4886ZM87.2738 104.447C84.0721 104.447 81.2189 103.892 78.7141 102.781C76.2094 101.649 74.2274 99.9825 72.7681 97.7827C71.3306 95.5611 70.6119 92.795 70.6119 89.4844C70.6119 86.6965 71.1237 84.3551 72.1474 82.4602C73.171 80.5653 74.565 79.0407 76.3292 77.8864C78.0934 76.732 80.0972 75.8608 82.3406 75.2727C84.6057 74.6847 86.9798 74.2708 89.4627 74.0312C92.3813 73.7263 94.7335 73.4432 96.5195 73.1818C98.3055 72.8987 99.6014 72.4848 100.407 71.9403C101.213 71.3958 101.616 70.59 101.616 69.5227V69.3267C101.616 67.2576 100.963 65.6567 99.6559 64.5241C98.3709 63.3916 96.5413 62.8253 94.1673 62.8253C91.6625 62.8253 89.6696 63.3807 88.1886 64.4915C86.7075 65.5805 85.7274 66.9527 85.2482 68.608L72.3761 67.5625C73.0295 64.5133 74.3145 61.8778 76.2312 59.6562C78.1478 57.4129 80.6199 55.6922 83.6474 54.4943C86.6966 53.2746 90.225 52.6648 94.2326 52.6648C97.0205 52.6648 99.6886 52.9915 102.237 53.6449C104.807 54.2983 107.083 55.3111 109.065 56.6832C111.069 58.0554 112.648 59.8196 113.802 61.9759C114.957 64.1103 115.534 66.6695 115.534 69.6534V103.5H102.335V96.5412H101.943C101.137 98.1094 100.059 99.4924 98.7085 100.69C97.3581 101.866 95.7354 102.792 93.8406 103.467C91.9457 104.121 89.7567 104.447 87.2738 104.447ZM91.2596 94.8423C93.3069 94.8423 95.1147 94.4394 96.6829 93.6335C98.2511 92.8059 99.4817 91.6951 100.375 90.3011C101.268 88.9072 101.714 87.3281 101.714 85.5639V80.2386C101.279 80.5218 100.68 80.7831 99.9173 81.0227C99.1767 81.2405 98.3382 81.4474 97.4016 81.6435C96.4651 81.8177 95.5285 81.9811 94.592 82.1335C93.6554 82.2642 92.806 82.384 92.0437 82.4929C90.4102 82.7325 88.9835 83.1136 87.7638 83.6364C86.5442 84.1591 85.5967 84.867 84.9215 85.7599C84.2463 86.6312 83.9087 87.7202 83.9087 89.027C83.9087 90.9219 84.5948 92.3703 85.967 93.3722C87.3609 94.3523 89.1251 94.8423 91.2596 94.8423ZM140.249 74.4886V103.5H126.331V53.3182H139.596V62.1719H140.184C141.294 59.2533 143.157 56.9446 145.77 55.2457C148.384 53.5251 151.553 52.6648 155.277 52.6648C158.762 52.6648 161.801 53.4271 164.392 54.9517C166.984 56.4763 168.999 58.6544 170.436 61.4858C171.874 64.2955 172.593 67.6496 172.593 71.5483V103.5H158.675V74.0312C158.697 70.9602 157.913 68.5644 156.323 66.8438C154.733 65.1013 152.544 64.2301 149.756 64.2301C147.883 64.2301 146.228 64.633 144.79 65.4389C143.374 66.2448 142.264 67.4209 141.458 68.9673C140.674 70.492 140.271 72.3324 140.249 74.4886ZM202.053 104.317C198.242 104.317 194.79 103.337 191.697 101.376C188.626 99.3944 186.186 96.4867 184.379 92.6534C182.593 88.7983 181.7 84.072 181.7 78.4744C181.7 72.7244 182.625 67.9437 184.477 64.1321C186.328 60.2988 188.789 57.4347 191.86 55.5398C194.953 53.6231 198.34 52.6648 202.021 52.6648C204.83 52.6648 207.172 53.1439 209.045 54.1023C210.94 55.0388 212.464 56.215 213.619 57.6307C214.795 59.0246 215.688 60.3968 216.298 61.7472H216.722V36.5909H230.607V103.5H216.886V95.4631H216.298C215.644 96.857 214.719 98.2401 213.521 99.6122C212.344 100.963 210.809 102.084 208.914 102.977C207.041 103.87 204.754 104.317 202.053 104.317ZM206.464 93.2415C208.707 93.2415 210.602 92.6316 212.148 91.4119C213.717 90.1705 214.915 88.4389 215.742 86.2173C216.592 83.9957 217.016 81.393 217.016 78.4091C217.016 75.4252 216.603 72.8333 215.775 70.6335C214.947 68.4337 213.749 66.7348 212.181 65.5369C210.613 64.339 208.707 63.7401 206.464 63.7401C204.177 63.7401 202.249 64.3608 200.681 65.6023C199.113 66.8437 197.926 68.5644 197.12 70.7642C196.314 72.964 195.911 75.5123 195.911 78.4091C195.911 81.3277 196.314 83.9086 197.12 86.152C197.948 88.3736 199.135 90.116 200.681 91.3793C202.249 92.6207 204.177 93.2415 206.464 93.2415ZM250.642 122.318C248.878 122.318 247.223 122.177 245.676 121.893C244.152 121.632 242.889 121.295 241.887 120.881L245.023 110.491C246.657 110.992 248.127 111.265 249.434 111.308C250.762 111.352 251.906 111.047 252.864 110.393C253.844 109.74 254.639 108.629 255.249 107.061L256.066 104.938L238.064 53.3182H252.701L263.09 90.1705H263.613L274.1 53.3182H288.834L269.33 108.923C268.393 111.624 267.119 113.976 265.507 115.98C263.917 118.006 261.903 119.563 259.463 120.652C257.024 121.763 254.084 122.318 250.642 122.318Z" fill="#101330"/>
<path fill-rule="evenodd" clip-rule="evenodd" d="M528 58C516.817 58 507.42 50.351 504.756 40H477.248C471.382 40 466.376 44.241 465.412 50.027L464.425 55.946C463.489 61.565 460.646 66.455 456.626 70C460.646 73.545 463.489 78.435 464.425 84.054L465.412 89.973C466.376 95.759 471.382 100 477.248 100H480.756C483.42 89.649 492.817 82 504 82C517.255 82 528 92.745 528 106C528 119.255 517.255 130 504 130C492.817 130 483.42 122.351 480.756 112H477.248C465.516 112 455.504 103.518 453.575 91.946L452.588 86.027C451.624 80.241 446.618 76 440.752 76H431.244C428.58 86.351 419.183 94 408 94C396.817 94 387.42 86.351 384.756 76H371.244C368.58 86.351 359.183 94 348 94C334.745 94 324 83.255 324 70C324 56.745 334.745 46 348 46C359.183 46 368.58 53.649 371.244 64H384.756C387.42 53.649 396.817 46 408 46C419.183 46 428.58 53.649 431.244 64H440.752C446.618 64 451.624 59.759 452.588 53.973L453.575 48.054C455.504 36.482 465.516 28 477.248 28H504.756C507.42 17.649 516.817 10 528 10C541.255 10 552 20.745 552 34C552 47.255 541.255 58 528 58ZM528 46C534.627 46 540 40.627 540 34C540 27.373 534.627 22 528 22C521.373 22 516 27.373 516 34C516 40.627 521.373 46 528 46ZM348 82C354.627 82 360 76.627 360 70C360 63.373 354.627 58 348 58C341.373 58 336 63.373 336 70C336 76.627 341.373 82 348 82ZM420 70C420 76.627 414.627 82 408 82C401.373 82 396 76.627 396 70C396 63.373 401.373 58 408 58C414.627 58 420 63.373 420 70ZM516 106C516 112.627 510.627 118 504 118C497.373 118 492 112.627 492 106C492 99.373 497.373 94 504 94C510.627 94 516 99.373 516 106Z" fill="#EA4B71"/>
<path fill-rule="evenodd" clip-rule="evenodd" d="M679.757 68.427V67.856C683.944 65.759 688.131 62.137 688.131 54.989C688.131 44.695 679.662 38.5 667.958 38.5C655.968 38.5 647.404 45.076 647.404 55.179C647.404 62.042 651.4 65.759 655.778 67.856V68.427C650.925 70.143 645.12 75.29 645.12 83.868C645.12 94.256 653.684 101.5 667.863 101.5C682.041 101.5 690.32 94.256 690.32 83.868C690.32 75.29 684.61 70.238 679.757 68.427ZM667.863 47.269C672.621 47.269 676.141 50.318 676.141 55.465C676.141 60.612 672.525 63.662 667.863 63.662C663.2 63.662 659.298 60.612 659.298 55.465C659.298 50.223 663.01 47.269 667.863 47.269ZM667.863 92.35C662.343 92.35 657.871 88.824 657.871 82.819C657.871 77.387 661.582 73.288 667.767 73.288C673.858 73.288 677.569 77.291 677.569 83.01C677.569 88.824 673.287 92.35 667.863 92.35Z" fill="#101330"/>
<path d="M705 100.547H717.18V74.718C717.18 66.235 722.319 62.518 728.123 62.518C733.833 62.518 738.305 66.331 738.305 74.146V100.547H750.485V71.668C750.485 59.182 743.253 51.939 731.93 51.939C724.793 51.939 720.796 54.798 717.941 58.515H717.18L716.133 52.892H705V100.547Z" fill="#101330"/>
<path d="M597.18 100.547H585V52.892H596.133L597.18 58.515H597.941C600.796 54.798 604.793 51.939 611.93 51.939C623.253 51.939 630.485 59.182 630.485 71.668V100.547H618.305V74.146C618.305 66.331 613.833 62.518 608.123 62.518C602.319 62.518 597.18 66.235 597.18 74.718V100.547Z" fill="#101330"/>
</svg>
